<svg xmlns="http://www.w3.org/2000/svg" viewBox="0 0 100 100" width="100" height="100">
<defs>
  <linearGradient id="space" x1="18" y1="14" x2="86" y2="92" gradientUnits="userSpaceOnUse">
    <stop offset="0" stop-color="#2A2620"/><stop offset=".5" stop-color="#14110C"/><stop offset="1" stop-color="#070503"/>
  </linearGradient>
  <radialGradient id="atmo" cx=".5" cy=".5" r=".5">
    <stop offset="0" stop-color="#E0A94A" stop-opacity=".5"/><stop offset=".6" stop-color="#E0A94A" stop-opacity=".15"/><stop offset="1" stop-color="#E0A94A" stop-opacity="0"/>
  </radialGradient>
  <radialGradient id="planet" cx=".37" cy=".32" r=".76">
    <stop offset="0" stop-color="#DCCFB4"/><stop offset=".45" stop-color="#8C7B54"/><stop offset=".82" stop-color="#4A3E22"/><stop offset="1" stop-color="#241B10"/>
  </radialGradient>
  <radialGradient id="satg" cx=".5" cy=".5" r=".5">
    <stop offset="0" stop-color="#FFFFFF"/><stop offset=".34" stop-color="#FFF3D6"/><stop offset=".7" stop-color="#F0B23C" stop-opacity=".5"/><stop offset="1" stop-color="#F0B23C" stop-opacity="0"/>
  </radialGradient>
  <linearGradient id="trail" x1="52" y1="39" x2="72" y2="44" gradientUnits="userSpaceOnUse">
    <stop offset="0" stop-color="#FFF3D6" stop-opacity="0"/><stop offset="1" stop-color="#FFF3D6" stop-opacity=".85"/>
  </linearGradient>
  <radialGradient id="gloss" cx=".5" cy="0" r=".75"><stop offset="0" stop-color="#fff" stop-opacity=".13"/><stop offset="1" stop-color="#fff" stop-opacity="0"/></radialGradient>
  <radialGradient id="vig" cx=".5" cy=".46" r=".72"><stop offset=".58" stop-color="#000" stop-opacity="0"/><stop offset="1" stop-color="#000" stop-opacity=".44"/></radialGradient>
  <filter id="soft" x="-60%" y="-60%" width="220%" height="220%"><feGaussianBlur stdDeviation="1.3"/></filter>
  <filter id="bloom" x="-140%" y="-140%" width="380%" height="380%"><feGaussianBlur stdDeviation="3"/></filter>
  <clipPath id="sqc"><rect x="8" y="8" width="84" height="84" rx="23"/></clipPath>
</defs>

<rect x="8" y="8" width="84" height="84" rx="23" fill="url(#space)"/>
<g clip-path="url(#sqc)">
  <circle cx="50" cy="51" r="33" fill="url(#atmo)"/>
  <g fill="#FFF3DC">
    <circle cx="24" cy="22" r=".9" opacity=".7"/><circle cx="78" cy="25" r=".7" opacity=".5"/><circle cx="83" cy="61" r="1" opacity=".6"/>
    <circle cx="28" cy="76" r=".8" opacity=".45"/><circle cx="19" cy="53" r=".7" opacity=".4"/>
  </g>
  <ellipse cx="50" cy="50" rx="33" ry="12" transform="rotate(-20 50 50)" fill="none" stroke="#E7D4A8" stroke-width=".9" opacity=".4"/>
  <circle cx="50" cy="50" r="17.5" fill="#E0A94A" opacity=".26" filter="url(#soft)"/>
  <circle cx="50" cy="50" r="15" fill="url(#planet)"/>
  <ellipse cx="44.5" cy="44" rx="4.6" ry="3.3" fill="#FFF6E6" opacity=".26" filter="url(#soft)"/>
  <path d="M22 55 A33 12 -20 0 0 72.5 46" fill="none" stroke="#EFE0BC" stroke-width="1" opacity=".85"/>
  <path d="M53 39.5 A33 12 -20 0 1 71 43.6" fill="none" stroke="url(#trail)" stroke-width="2.1" stroke-linecap="round" opacity=".8" filter="url(#soft)"/>
  <circle cx="72" cy="43.6" r="10" fill="url(#satg)" filter="url(#bloom)"/>
  <circle cx="72" cy="43.6" r="4.3" fill="#FFFDF6"/><circle cx="72" cy="43.6" r="5" fill="url(#satg)"/>
  <rect x="8" y="8" width="84" height="84" fill="url(#gloss)"/>
  <rect x="8" y="8" width="84" height="84" fill="url(#vig)"/>
</g>
<rect x="9" y="9" width="82" height="82" rx="22.5" fill="none" stroke="#fff" stroke-opacity=".12" stroke-width=".8"/>
</svg>
